<svg xmlns="http://www.w3.org/2000/svg" width="760" height="440" viewBox="0 0 760 440">
<rect width="100%" height="100%" fill="#ffffff"/>
<text x="64" y="24" font-family="Segoe UI, sans-serif" font-size="16" fill="#111827">BetterBench aggregate decode</text>
<rect x="64" y="36" width="12" height="12" fill="#0f766e"/>
<text x="82" y="46" font-family="Segoe UI, sans-serif" font-size="12" fill="#111827">K8/V4</text>
<rect x="234" y="36" width="12" height="12" fill="#6b7280"/>
<text x="252" y="46" font-family="Segoe UI, sans-serif" font-size="12" fill="#111827">FP8</text>
<line x1="64" y1="392.0" x2="744" y2="392.0" stroke="#e5e7eb"/>
<text x="56" y="396.0" text-anchor="end" font-family="Segoe UI, sans-serif" font-size="11" fill="#4b5563">0</text>
<line x1="64" y1="329.2" x2="744" y2="329.2" stroke="#e5e7eb"/>
<text x="56" y="333.2" text-anchor="end" font-family="Segoe UI, sans-serif" font-size="11" fill="#4b5563">81</text>
<line x1="64" y1="266.4" x2="744" y2="266.4" stroke="#e5e7eb"/>
<text x="56" y="270.4" text-anchor="end" font-family="Segoe UI, sans-serif" font-size="11" fill="#4b5563">163</text>
<line x1="64" y1="203.6" x2="744" y2="203.6" stroke="#e5e7eb"/>
<text x="56" y="207.6" text-anchor="end" font-family="Segoe UI, sans-serif" font-size="11" fill="#4b5563">244</text>
<line x1="64" y1="140.8" x2="744" y2="140.8" stroke="#e5e7eb"/>
<text x="56" y="144.8" text-anchor="end" font-family="Segoe UI, sans-serif" font-size="11" fill="#4b5563">325</text>
<line x1="64" y1="78.0" x2="744" y2="78.0" stroke="#e5e7eb"/>
<text x="56" y="82.0" text-anchor="end" font-family="Segoe UI, sans-serif" font-size="11" fill="#4b5563">406</text>
<text x="16" y="235" transform="rotate(-90 16 235)" font-family="Segoe UI, sans-serif" font-size="12" fill="#374151">tok/s</text>
<rect x="118.0" y="320.0" width="28.0" height="72.0" fill="#0f766e"/>
<text x="132.0" y="314.0" text-anchor="middle" font-family="Segoe UI, sans-serif" font-size="11" fill="#111827">93.2</text>
<rect x="152.0" y="311.7" width="28.0" height="80.3" fill="#6b7280"/>
<text x="166.0" y="305.7" text-anchor="middle" font-family="Segoe UI, sans-serif" font-size="11" fill="#111827">103.9</text>
<text x="149.0" y="422" text-anchor="middle" font-family="Segoe UI, sans-serif" font-size="12" fill="#111827">c=1</text>
<rect x="288.0" y="278.6" width="28.0" height="113.4" fill="#0f766e"/>
<text x="302.0" y="272.6" text-anchor="middle" font-family="Segoe UI, sans-serif" font-size="11" fill="#111827">146.7</text>
<rect x="322.0" y="265.1" width="28.0" height="126.9" fill="#6b7280"/>
<text x="336.0" y="259.1" text-anchor="middle" font-family="Segoe UI, sans-serif" font-size="11" fill="#111827">164.2</text>
<text x="319.0" y="422" text-anchor="middle" font-family="Segoe UI, sans-serif" font-size="12" fill="#111827">c=2</text>
<rect x="458.0" y="221.4" width="28.0" height="170.6" fill="#0f766e"/>
<text x="472.0" y="215.4" text-anchor="middle" font-family="Segoe UI, sans-serif" font-size="11" fill="#111827">220.7</text>
<rect x="492.0" y="196.0" width="28.0" height="196.0" fill="#6b7280"/>
<text x="506.0" y="190.0" text-anchor="middle" font-family="Segoe UI, sans-serif" font-size="11" fill="#111827">253.6</text>
<text x="489.0" y="422" text-anchor="middle" font-family="Segoe UI, sans-serif" font-size="12" fill="#111827">c=4</text>
<rect x="628.0" y="159.1" width="28.0" height="232.9" fill="#0f766e"/>
<text x="642.0" y="153.1" text-anchor="middle" font-family="Segoe UI, sans-serif" font-size="11" fill="#111827">301.4</text>
<rect x="662.0" y="125.9" width="28.0" height="266.1" fill="#6b7280"/>
<text x="676.0" y="119.9" text-anchor="middle" font-family="Segoe UI, sans-serif" font-size="11" fill="#111827">344.3</text>
<text x="659.0" y="422" text-anchor="middle" font-family="Segoe UI, sans-serif" font-size="12" fill="#111827">c=8</text>
</svg>
